<svg width="48" height="48" viewBox="0 0 48 48" fill="none" xmlns="http://www.w3.org/2000/svg">
<g clip-path="url(#clip0_1281_674)">
<rect width="48" height="48" fill="black"/>
<path fill-rule="evenodd" clip-rule="evenodd" d="M34.5873 16.8008L25.6848 7.89814C25.235 7.45111 24.6267 7.2002 23.9925 7.2002C23.3584 7.2002 22.75 7.45111 22.3002 7.89814L13.4023 16.8008H16.7903L16.7914 16.7997L23.9925 9.59925L31.1947 16.8008H34.5873ZM37.3303 19.5439H33.938L38.3947 24.0002L34.6216 27.773H38.0214L40.102 25.6923C40.5491 25.2426 40.8 24.6343 40.8 24.0002C40.8 23.3661 40.5491 22.7578 40.102 22.3081H40.0945L37.3303 19.5439ZM23.9925 38.4011L31.8783 30.516H35.2784L25.6923 40.1022C25.2425 40.5493 24.6342 40.8002 24 40.8002C23.3659 40.8002 22.7575 40.5493 22.3077 40.1022L12.7217 30.516H16.1067L23.9925 38.4011ZM13.3634 27.773L9.59028 24.0002L14.047 19.5439H10.6608L10.6502 19.5545L7.89802 22.3081C7.45095 22.7578 7.20001 23.3661 7.20001 24.0002C7.20001 24.6343 7.45095 25.2426 7.89802 25.6923L9.97866 27.773H13.3634Z" fill="white"/>
<path d="M16.0818 30.5762L23.95 38.4434L23.993 38.4863L24.035 38.4434L31.9031 30.5762H35.1336L25.6502 40.0596C25.2117 40.4954 24.6181 40.7402 23.9998 40.7402C23.3816 40.7402 22.7888 40.4953 22.3504 40.0596L12.867 30.5762H16.0818ZM37.3055 19.6035L40.0701 22.3682H40.075C40.5005 22.8049 40.74 23.3897 40.7401 24C40.7401 24.6181 40.4951 25.211 40.0594 25.6494L37.9969 27.7129H34.7664L38.4373 24.043L38.4793 24L34.0828 19.6035H37.3055ZM9.54767 23.958L9.50568 24L9.54767 24.043L13.2186 27.7129H10.0037L7.94025 25.6494H7.93927C7.50396 25.211 7.25958 24.6178 7.25958 24C7.25963 23.382 7.50456 22.789 7.94025 22.3506L10.6746 19.6133L13.9012 19.6035L9.54767 23.958ZM23.993 7.25977C24.5339 7.25987 25.0558 7.44732 25.4715 7.78613L25.6424 7.94043L34.4432 16.7412H31.2195L23.993 9.51465L23.95 9.55664L16.7645 16.7412H13.5467L22.3426 7.94043C22.7811 7.50467 23.3748 7.25977 23.993 7.25977Z" stroke="white" stroke-width="0.12"/>
</g>
<defs>
<clipPath id="clip0_1281_674">
<rect width="48" height="48" fill="white"/>
</clipPath>
</defs>
</svg>
