<svg width="100" height="100" viewBox="0 0 100 100" fill="none" xmlns="http://www.w3.org/2000/svg">
  <rect width="100" height="100" fill="white" />
  <path
    d="M58.3333 58.3332C62.9357 58.3332 66.6667 54.6022 66.6667 49.9998C66.6667 45.3975 62.9357 41.6665 58.3333 41.6665C53.731 41.6665 50 45.3975 50 49.9998C50 54.6022 53.731 58.3332 58.3333 58.3332Z"
    fill="#29A9FF"
  />
  <path
    fill-rule="evenodd"
    clip-rule="evenodd"
    d="M30 16.6665C22.6362 16.6665 16.6667 22.636 16.6667 29.9998V69.9998C16.6667 77.3637 22.6362 83.3332 30 83.3332H70C77.3638 83.3332 83.3333 77.3637 83.3333 69.9998V29.9998C83.3333 22.636 77.3638 16.6665 70 16.6665H30ZM49.9995 69.9993C61.0452 69.9993 69.9995 61.045 69.9995 49.9993C69.9995 38.9537 61.0452 29.9993 49.9995 29.9993C38.9538 29.9993 29.9995 38.9537 29.9995 49.9993C29.9995 61.045 38.9538 69.9993 49.9995 69.9993Z"
    fill="#29A9FF"
  />
  <path
    fill-rule="evenodd"
    clip-rule="evenodd"
    d="M30 10C18.9543 10 10 18.9543 10 30V70C10 81.0457 18.9543 90 30 90H70C81.0457 90 90 81.0457 90 70V30C90 18.9543 81.0457 10 70 10H30ZM30 13.3333C20.7952 13.3333 13.3333 20.7952 13.3333 30V70C13.3333 79.2047 20.7952 86.6667 30 86.6667H70C79.2047 86.6667 86.6667 79.2047 86.6667 70V30C86.6667 20.7952 79.2047 13.3333 70 13.3333H30Z"
    fill="#29A9FF"
  />
</svg>
