<svg width="100" height="100" viewBox="0 0 100 100" fill="none" xmlns="http://www.w3.org/2000/svg">
  <rect width="100" height="100" fill="#EB5E41" />
  <path
    fill-rule="evenodd"
    clip-rule="evenodd"
    d="M43.7609 41.5213C44.2443 40.1066 44.7279 38.6911 45.2116 37.275C45.773 35.6388 46.3195 34.0414 46.8655 32.4455L46.9284 32.2618C47.1144 31.7181 47.3003 31.1744 47.4858 30.6308C48.2232 28.473 48.9603 26.3154 49.7104 24.162C49.717 24.1429 49.7237 24.1227 49.7307 24.1017C49.801 23.8921 49.8973 23.6056 50.1391 23.6056C50.3747 23.6056 50.4716 23.8662 50.5462 24.0675C50.556 24.0934 50.5651 24.1184 50.5742 24.1417C50.794 24.7011 50.9917 25.2693 51.1895 25.8374C51.2609 26.0425 51.3323 26.2476 51.4047 26.4523C51.963 28.0313 52.5216 29.6102 53.0802 31.1892C55.0041 36.6272 56.9277 42.0652 58.8503 47.5035C59.2885 48.7435 59.1173 48.9745 57.7807 48.9745C56.9459 48.9745 56.1112 48.9745 55.2764 48.9745C51.5612 48.9745 47.8463 48.9745 44.1313 48.977C43.9885 48.9773 43.8456 48.9924 43.688 49.0095C43.6098 49.0179 43.5279 49.0267 43.4405 49.0344L56.1518 85L56.2858 84.9783V69.5072H88.6314C88.6045 69.4208 88.5817 69.3448 88.5607 69.2755C88.5212 69.1457 88.4893 69.0404 88.4529 68.9364C87.4677 66.1123 86.4824 63.2884 85.4968 60.4643C80.2804 45.5148 75.064 30.565 69.8574 15.6118C69.6901 15.1313 69.4591 14.9994 68.959 15C58.2794 15.0135 47.5995 15.0131 36.9195 15.0127C35.0398 15.0127 33.1601 15.0126 31.2803 15.0126H30.5544L12 70.006H12.7541C14.2094 70.006 15.6648 70.0056 17.1201 70.0053C22.4894 70.0035 27.8587 70.0022 33.2279 70.0214C33.8458 70.0239 34.1054 69.8447 34.3044 69.2581C37.441 60.0177 40.5962 50.7833 43.7609 41.5213Z"
    fill="white"
  />
</svg>
