<svg width="100" height="100" viewBox="0 0 100 100" fill="none" xmlns="http://www.w3.org/2000/svg">
  <rect width="100" height="100" fill="black" />
  <path
    d="M89.9978 49.5149L72.2361 46.229L70.2037 49.7483L65.2014 58.4091L52.2133 80.8969C51.6444 81.8814 50.1447 81.4764 50.1447 80.3384V61.439V59.3874C50.1447 58.3221 49.3936 57.406 48.3525 57.2015L28.117 53.2264L10.0029 49.9145C10.0304 50.8554 10.2526 51.792 10.6758 52.6586L25.6259 78.6015C27.7116 82.221 31.5626 84.4478 35.7274 84.4424L64.3975 84.4042C68.5602 84.3987 72.4035 82.164 74.4807 78.542L89.1118 53.0277C89.7355 51.9427 90.0286 50.7255 89.9978 49.5149Z"
    fill="url(#paint0_linear_1252_863)"
  />
  <path
    d="M30.1549 49.6896L35.1648 40.9955L48.0757 18.5904C48.6437 17.6048 50.1448 18.0094 50.1448 19.1482V40.0881C50.1448 41.1546 50.8976 42.0715 51.9403 42.2746L72.2361 46.229L89.9978 49.5149C89.9752 48.6256 89.7756 47.7412 89.3998 46.9141C89.3113 46.7195 89.2163 46.527 89.1085 46.3398L74.4589 20.8521C72.3773 17.2309 68.5299 15 64.3661 15H35.598C31.4274 15 27.5749 17.2379 25.496 20.8683L10.888 46.3769C10.8544 46.4353 10.8252 46.4957 10.7935 46.5549C10.2327 47.602 9.96911 48.761 10.0029 49.9142L28.117 53.2261L30.1549 49.6896Z"
    fill="url(#paint1_linear_1252_863)"
  />
  <defs>
    <linearGradient
      id="paint0_linear_1252_863"
      x1="88.327"
      y1="65.13"
      x2="11.4413"
      y2="65.8422"
      gradientUnits="userSpaceOnUse"
    >
      <stop stop-color="#3585A3" />
      <stop offset="1" stop-color="#00DEAE" />
    </linearGradient>
    <linearGradient
      id="paint1_linear_1252_863"
      x1="13.8745"
      y1="34.5839"
      x2="82.178"
      y2="32.803"
      gradientUnits="userSpaceOnUse"
    >
      <stop stop-color="#3585A3" />
      <stop offset="1" stop-color="#00DEAE" />
    </linearGradient>
  </defs>
</svg>
