<svg width="100" height="100" viewBox="0 0 100 100" fill="none" xmlns="http://www.w3.org/2000/svg">
  <rect width="100" height="100" fill="black" />
  <path
    d="M25 32.457V53.3719C25 54.3605 25.5082 55.2792 26.3444 55.8019L40.6063 64.7189C42.5069 65.9072 44.9686 64.536 44.9686 62.289V44.7083C44.9686 43.6968 45.5005 42.7604 46.3678 42.2449L55.0675 37.0742V82.1324C55.0675 84.3718 57.5143 85.7443 59.4154 84.5712L74.1358 75.4876C74.98 74.9666 75.4943 74.0433 75.4943 73.0487V29.7801C75.4943 27.5515 73.0688 26.1774 71.1672 27.3285L55.0675 37.0742V17.8675C55.0675 15.645 52.6538 14.27 50.7518 15.409L26.391 29.9985C25.5283 30.5152 25 31.4489 25 32.457Z"
    fill="white"
  />
</svg>
