<svg width="120" height="120" viewBox="0 0 120 120" fill="none" xmlns="http://www.w3.org/2000/svg">
<g clip-path="url(#clip0_4367_799)">
<rect width="120" height="120" fill="white"/>
<path d="M147.006 60C147.006 11.9514 108.277 -27 60.5039 -27C12.7284 -27 -26 11.9514 -26 60C-26 108.047 12.7284 147 60.5029 147C108.277 147 147.006 108.047 147.006 60Z" fill="#339AF0"/>
<path d="M47.2403 26.031C46.5984 26.9032 46.2278 27.9453 46.175 29.027C46.1222 30.1087 46.3895 31.182 46.9435 32.1125C47.311 32.7277 47.7969 33.264 48.3729 33.6904C56.716 39.9062 61.506 49.4102 61.506 59.7694C61.506 70.1285 56.716 79.6325 48.3729 85.8484C47.7975 86.275 47.3123 86.8112 46.9452 87.4262C46.2003 88.6726 45.9799 90.1635 46.3321 91.5722C46.5062 92.2701 46.8145 92.9265 47.2403 93.5034C47.6653 94.0804 48.2002 94.5678 48.8142 94.9374C49.4283 95.307 50.1093 95.5515 50.8182 95.6569C51.5271 95.7623 52.2498 95.7266 52.9448 95.5516C53.6398 95.3767 54.2934 95.0661 54.8679 94.6377C57.4375 92.7221 59.7916 90.533 61.8886 88.1091H77.3425C80.3515 88.1091 82.7968 85.6602 82.7968 82.6371C82.7968 79.614 80.3568 77.1651 77.3425 77.1651H68.8129C71.1972 71.6765 72.4216 65.7544 72.4094 59.7703C72.4222 53.7856 71.198 47.8629 68.8138 42.3737H77.3478C80.3568 42.3737 82.8012 39.9257 82.8012 36.9017C82.8012 33.8785 80.3612 31.4305 77.3478 31.4305H61.8974C59.7994 29.0042 57.4438 26.8131 54.8723 24.8958C54.2985 24.4679 53.6458 24.1577 52.9518 23.9829C52.2577 23.8081 51.5359 23.7721 50.8279 23.8772C49.3957 24.0923 48.1073 24.8669 47.2456 26.031H47.2403Z" fill="white"/>
<path fill-rule="evenodd" clip-rule="evenodd" d="M38.6294 58.1369C38.6034 57.048 38.7931 55.9647 39.1878 54.9495C39.5808 53.937 40.1716 53.013 40.9255 52.2312C41.6762 51.4527 42.5757 50.833 43.5705 50.4087C44.5625 49.986 45.6297 49.7681 46.708 49.7681C47.7863 49.7681 48.8535 49.986 49.8455 50.4087C50.8406 50.8329 51.7404 51.4526 52.4914 52.2312C53.2454 53.013 53.8361 53.937 54.2291 54.9495C54.6232 55.9648 54.8124 57.0481 54.7857 58.1369C54.7367 60.2643 53.8642 62.2896 52.3518 63.7865C50.8496 65.2732 48.822 66.1079 46.7085 66.11C44.5943 66.1084 42.566 65.2736 41.0633 63.7865C39.5509 62.2896 38.6784 60.2643 38.6294 58.1369Z" fill="white"/>
</g>
<defs>
<clipPath id="clip0_4367_799">
<rect width="120" height="120" fill="white"/>
</clipPath>
</defs>
</svg>
