<svg width="100" height="100" viewBox="0 0 100 100" fill="none" xmlns="http://www.w3.org/2000/svg">
  <g clip-path="url(#clip0_1277_28782)">
    <rect width="100" height="100" fill="black" />
    <path
      fill-rule="evenodd"
      clip-rule="evenodd"
      d="M72.057 35.0013L53.51 16.4541C52.573 15.5227 51.3056 15 49.9844 15C48.6633 15 47.3958 15.5227 46.4589 16.4541L27.9216 35.0013H34.9798L34.9821 34.999L49.9844 19.998L64.989 35.0013H72.057ZM77.7715 40.716H70.7042L79.9891 50L72.1284 57.8599H79.2112L83.5459 53.5252C84.4773 52.5884 85.0001 51.321 85.0001 50C85.0001 48.679 84.4773 47.4116 83.5459 46.4748H83.5302L77.7715 40.716ZM49.9844 80.002L66.4133 63.5746H73.4966L53.5256 83.5459C52.5887 84.4773 51.3212 85 50.0001 85C48.6789 85 47.4115 84.4773 46.4745 83.5459L26.5035 63.5746H33.5556L49.9844 80.002ZM27.8404 57.8599L19.9798 50L29.2647 40.716H22.21L22.1879 40.738L16.4542 46.4748C15.5229 47.4116 15.0001 48.679 15.0001 50C15.0001 51.321 15.5229 52.5884 16.4542 53.5252L20.7889 57.8599H27.8404Z"
      fill="white"
    />
    <path
      d="M33.503 63.6992L49.8956 80.0908L49.9844 80.1787L50.0733 80.0908L66.4659 63.6992H73.1954L53.4376 83.457C52.524 84.3651 51.2882 84.875 50.0001 84.875C48.7119 84.875 47.4761 84.3651 46.5626 83.457H46.5616L26.8047 63.6992H33.503ZM77.7188 40.8408L83.4415 46.5635L83.4786 46.5996H83.4922C84.3781 47.5094 84.8751 48.7289 84.8751 50C84.8751 51.2879 84.3651 52.5231 83.4571 53.4365L79.1592 57.7354H72.4297L80.0772 50.0889L80.1661 50L80.0772 49.9111L71.0059 40.8408H77.7188ZM19.8917 49.9111L19.8028 50L19.8917 50.0889L27.5391 57.7354H20.8409L16.543 53.4365H16.5421C15.6344 52.5231 15.1251 51.2877 15.1251 50C15.1251 48.7121 15.6351 47.4769 16.543 46.5635L22.2393 40.8623L28.961 40.8408L19.8917 49.9111ZM49.9844 15.125C51.2725 15.125 52.5084 15.6349 53.4219 16.543V16.542L71.7549 34.876H65.0401L50.0733 19.9092L49.9844 19.8213L49.8956 19.9092L34.9278 34.876H28.2237L46.546 16.542L46.5469 16.543C47.4605 15.6349 48.6963 15.125 49.9844 15.125Z"
      stroke="white"
      stroke-width="0.25"
    />
  </g>
  <defs>
    <clipPath id="clip0_1277_28782">
      <rect width="100" height="100" fill="white" />
    </clipPath>
  </defs>
</svg>
