<svg width="100" height="100" viewBox="0 0 100 100" fill="none" xmlns="http://www.w3.org/2000/svg">
  <path
    fill-rule="evenodd"
    clip-rule="evenodd"
    d="M21.9528 48.9127C22.1288 48.3976 22.3048 47.8823 22.481 47.3667C22.6854 46.7709 22.8843 46.1893 23.0831 45.6082L23.106 45.5413C23.1738 45.3434 23.2414 45.1454 23.309 44.9475C23.5775 44.1619 23.8459 43.3763 24.119 42.5922C24.1214 42.5853 24.1238 42.5779 24.1263 42.5703C24.152 42.4939 24.187 42.3896 24.2751 42.3896C24.3608 42.3896 24.3961 42.4845 24.4233 42.5578C24.4268 42.5673 24.4302 42.5763 24.4335 42.5848C24.5135 42.7885 24.5855 42.9954 24.6575 43.2022C24.6835 43.2769 24.7095 43.3516 24.7359 43.4261C24.9391 44.001 25.1425 44.5759 25.3459 45.1508C26.0464 47.1308 26.7468 49.1107 27.4468 51.0908C27.6063 51.5423 27.544 51.6264 27.0573 51.6264C26.7534 51.6264 26.4495 51.6264 26.1456 51.6264C24.7928 51.6264 23.4402 51.6264 22.0876 51.6273C22.0356 51.6274 21.9836 51.6329 21.9262 51.6392C21.8977 51.6422 21.8679 51.6454 21.8361 51.6482L26.4643 64.7433L26.5131 64.7354V59.1024H38.2901C38.2803 59.0709 38.272 59.0432 38.2643 59.018C38.2499 58.9707 38.2383 58.9324 38.2251 58.8945C37.8664 57.8663 37.5076 56.8381 37.1488 55.8098C35.2495 50.3667 33.3502 44.9235 31.4545 39.4791C31.3936 39.3041 31.3095 39.2561 31.1274 39.2563C27.2389 39.2613 23.3504 39.2611 19.4618 39.261C18.7774 39.261 18.093 39.2609 17.4086 39.2609H17.1443L10.3886 59.284H10.6632C11.1931 59.284 11.723 59.2838 12.2529 59.2837C14.2078 59.2831 16.1628 59.2826 18.1177 59.2896C18.3427 59.2905 18.4372 59.2252 18.5097 59.0116C19.6517 55.6472 20.8005 52.285 21.9528 48.9127ZM53.6068 39.2563C55.9826 39.2563 58.2389 39.5979 59.9141 40.5543C61.6214 41.529 62.6974 43.1291 62.6974 45.5338C62.6974 47.0546 62.074 48.4199 60.9634 49.3684C60.5149 49.7514 60.5483 50.6856 60.9846 51.0823C61.0533 51.1447 61.1193 51.2098 61.1824 51.2778C61.8332 51.9776 62.1391 52.9203 62.1391 54.0874V56.337C62.1391 57.1333 62.1449 57.8548 62.4817 58.547C62.6082 58.8069 62.4189 59.1094 62.13 59.1094H55.3681C55.2222 59.1094 55.0882 59.0286 55.0201 58.8996C54.7365 58.3633 54.6223 57.5193 54.6223 56.3894V54.8984C54.6223 54.2806 54.4856 53.8624 54.1865 53.5866C53.8789 53.303 53.317 53.0929 52.2847 53.0929H48.3222C47.9704 53.0929 47.6851 53.3783 47.6851 53.7301V58.4722C47.6851 58.8241 47.3997 59.1094 47.0479 59.1094H40.8054C40.4535 59.1094 40.1682 58.8241 40.1682 58.4722V39.8935C40.1682 39.5416 40.4535 39.2563 40.8054 39.2563H53.6068ZM52.2259 48.0716C53.4716 48.0716 54.1758 47.8457 54.5665 47.5313C54.936 47.234 55.0923 46.801 55.0923 46.1877C55.0923 45.8356 55.021 45.5734 54.9069 45.3741C54.7937 45.1761 54.6253 45.0167 54.393 44.8894C53.9116 44.6257 53.1814 44.5131 52.2259 44.5131H48.3222C47.9704 44.5131 47.6851 44.7983 47.6851 45.1502V47.4345C47.6851 47.7864 47.9704 48.0716 48.3222 48.0716H52.2259ZM80.5679 39.434C80.6866 39.32 80.8447 39.2563 81.0092 39.2563H88.9299C89.5176 39.2563 89.792 39.9842 89.3506 40.3722L81.6455 47.1426C81.3829 47.3736 81.3552 47.7729 81.5838 48.0377L90.2326 58.0558C90.589 58.4686 90.2956 59.1094 89.7502 59.1094H81.9064C81.7175 59.1094 81.5383 59.0255 81.4173 58.8806L76.2253 52.6636C75.9911 52.383 75.5693 52.3568 75.3019 52.6059L73.2839 54.4867C73.1545 54.6072 73.0811 54.776 73.0811 54.9529V58.4722C73.0811 58.8241 72.7958 59.1094 72.444 59.1094H66.2014C65.8496 59.1094 65.5643 58.8241 65.5643 58.4722V39.8935C65.5643 39.5416 65.8496 39.2563 66.2014 39.2563H72.444C72.7958 39.2563 73.0811 39.5416 73.0811 39.8935V45.1285C73.0811 45.69 73.7546 45.977 74.1596 45.5881L80.5679 39.434Z"
    fill="#EB5E41"
  />
</svg>
