<svg width="100" height="100" viewBox="0 0 100 100" fill="none" xmlns="http://www.w3.org/2000/svg">
  <path
    d="M20 28.9484V54.0463C20 55.2326 20.6099 56.335 21.6133 56.9623L38.7276 67.6627C41.0083 69.0887 43.9623 67.4432 43.9623 64.7468V43.65C43.9623 42.4362 44.6006 41.3125 45.6413 40.6939L56.081 34.489V88.5589C56.081 91.2462 59.0172 92.8932 61.2985 91.4855L78.9629 80.5851C79.976 79.9599 80.5932 78.852 80.5932 77.6585V25.7361C80.5932 23.0618 77.6826 21.4129 75.4006 22.7942L56.081 34.489V11.441C56.081 8.77399 53.1845 7.12396 50.9022 8.4908L21.6692 25.9982C20.634 26.6182 20 27.7387 20 28.9484Z"
    fill="white"
  />
</svg>
