<svg width="100" height="100" viewBox="0 0 100 100" fill="none" xmlns="http://www.w3.org/2000/svg">
<path d="M89.5887 50C89.5887 27.9087 71.7723 10 49.7948 10C27.8164 10 10 27.9087 10 50C10 72.0908 27.8164 90 49.7944 90C71.7723 90 89.5887 72.0908 89.5887 50Z" fill="#339AF0"/>
<path d="M42.3843 31.1286C42.0277 31.6132 41.8218 32.1922 41.7925 32.7931C41.7631 33.3941 41.9116 33.9903 42.2194 34.5073C42.4236 34.8491 42.6935 35.147 43.0135 35.3839C47.6486 38.8371 50.3097 44.1171 50.3097 49.8722C50.3097 55.6273 47.6486 60.9073 43.0135 64.3605C42.6939 64.5975 42.4243 64.8954 42.2204 65.2371C41.8065 65.9296 41.6841 66.7578 41.8798 67.5404C41.9764 67.9282 42.1477 68.2928 42.3843 68.6133C42.6204 68.9339 42.9176 69.2046 43.2587 69.41C43.5998 69.6153 43.9782 69.7512 44.372 69.8097C44.7658 69.8683 45.1673 69.8484 45.5535 69.7512C45.9396 69.6541 46.3027 69.4815 46.6218 69.2435C48.0494 68.1792 49.3572 66.9631 50.5222 65.6165H59.1077C60.7794 65.6165 62.1379 64.256 62.1379 62.5765C62.1379 60.897 60.7823 59.5365 59.1077 59.5365H54.3691C55.6937 56.4873 56.3739 53.1972 56.3671 49.8727C56.3742 46.5479 55.6941 43.2575 54.3696 40.2079H59.1107C60.7823 40.2079 62.1404 38.8479 62.1404 37.1679C62.1404 35.4884 60.7848 34.1284 59.1107 34.1284H50.5271C49.3615 32.7804 48.0529 31.5631 46.6243 30.498C46.3055 30.2603 45.9429 30.0879 45.5573 29.9908C45.1717 29.8937 44.7708 29.8737 44.3774 29.9321C43.5817 30.0516 42.866 30.4819 42.3872 31.1286H42.3843Z" fill="white"/>
<path fill-rule="evenodd" clip-rule="evenodd" d="M37.6005 48.9648C37.586 48.3599 37.6915 47.758 37.9107 47.194C38.1291 46.6315 38.4572 46.1182 38.8761 45.6838C39.2932 45.2513 39.7929 44.907 40.3455 44.6713C40.8967 44.4365 41.4895 44.3154 42.0886 44.3154C42.6877 44.3154 43.2806 44.4365 43.8317 44.6713C44.3845 44.907 44.8844 45.2513 45.3016 45.6838C45.7205 46.1182 46.0486 46.6315 46.267 47.194C46.4859 47.7581 46.591 48.3599 46.5762 48.9648C46.549 50.1467 46.0643 51.2718 45.2241 52.1035C44.3895 52.9294 43.263 53.3931 42.0889 53.3943C40.9143 53.3934 39.7875 52.9296 38.9527 52.1035C38.1125 51.2718 37.6277 50.1467 37.6005 48.9648Z" fill="white"/>
</svg>
