<svg width="100" height="100" viewBox="0 0 100 100" fill="none" xmlns="http://www.w3.org/2000/svg">
  <path
    fill-rule="evenodd"
    clip-rule="evenodd"
    d="M88 29.601V17.0728C87.9994 16.885 87.9497 16.7007 87.8556 16.5381C87.7616 16.3755 87.6267 16.2403 87.4642 16.1461C87.3017 16.0519 87.1174 16.002 86.9296 16.0012C86.7418 16.0004 86.557 16.0488 86.3938 16.1416L78.1438 20.8541C77.8152 21.0423 77.5422 21.314 77.3523 21.6416C77.1625 21.9692 77.0625 22.3411 77.0625 22.7197V35.2478C77.0625 36.0728 77.9531 36.5916 78.6687 36.1791L86.9187 31.4666C87.2478 31.2781 87.5211 31.006 87.711 30.6778C87.9008 30.3496 88.0006 29.9801 88 29.601ZM14.6094 16.1447L38.4937 29.8416C38.8191 30.028 39.1875 30.126 39.5625 30.126C39.9375 30.126 40.3059 30.028 40.6313 29.8416L64.5156 16.1447C64.679 16.0511 64.8641 16.0021 65.0523 16.0025C65.2406 16.0029 65.4255 16.0527 65.5884 16.147C65.7514 16.2413 65.8867 16.3768 65.9809 16.5398C66.075 16.7028 66.1247 16.8877 66.125 17.076V54.6697C66.125 55.4041 65.75 56.0853 65.1281 56.4822L50.5969 65.7103L60.3156 71.4353C61.0031 71.8416 61.8625 71.8322 62.5438 71.4072L76.95 62.4135C77.1043 62.3165 77.2315 62.1819 77.3195 62.0223C77.4075 61.8626 77.4535 61.6833 77.4531 61.501V48.7353C77.4531 47.9416 77.8906 47.2166 78.5844 46.8416L86.4187 42.6353C86.5824 42.548 86.7659 42.5044 86.9514 42.509C87.1369 42.5136 87.3181 42.5661 87.4773 42.6614C87.6365 42.7567 87.7683 42.8916 87.8599 43.053C87.9515 43.2143 87.9997 43.3967 88 43.5822V67.1166C88 67.8791 87.5937 68.5853 86.9375 68.9697L62.4563 83.3197C62.1188 83.5172 61.7339 83.619 61.343 83.614C60.952 83.6091 60.5698 83.4976 60.2375 83.2916L41.6344 71.7885C41.4784 71.692 41.3497 71.5572 41.2606 71.3969C41.1714 71.2366 41.1248 71.0562 41.125 70.8728V59.5478C41.125 59.1885 41.3031 58.8541 41.6031 58.6541L54.2281 50.2353C54.5228 50.0394 54.7645 49.7737 54.9319 49.4619C55.0993 49.15 55.1871 48.8017 55.1875 48.4478V34.7291C55.1874 34.6532 55.1672 34.5787 55.1288 34.5133C55.0905 34.4478 55.0354 34.3937 54.9693 34.3565C54.9031 34.3193 54.8283 34.3003 54.7524 34.3015C54.6766 34.3028 54.6024 34.3241 54.5375 34.3635L40.6625 42.6885C40.33 42.8881 39.9497 42.9941 39.5618 42.9952C39.1739 42.9963 38.793 42.8925 38.4594 42.6947L24.3906 34.3572C24.3253 34.3188 24.2511 34.2982 24.1753 34.2976C24.0996 34.297 24.025 34.3164 23.9591 34.3538C23.8932 34.3912 23.8383 34.4452 23.7999 34.5106C23.7616 34.5759 23.7411 34.6502 23.7406 34.726V59.5166C23.7403 59.7064 23.6898 59.8927 23.5941 60.0566C23.4985 60.2205 23.3611 60.3562 23.1961 60.4498C23.031 60.5435 22.8441 60.5918 22.6543 60.5898C22.4645 60.5878 22.2787 60.5356 22.1156 60.4385L14.5625 55.9072C13.5937 55.326 13 54.276 13 53.1447V17.076C13 16.251 13.8937 15.7322 14.6094 16.1447Z"
    fill="#0073E6"
  />
</svg>
